<?xml version="1.0" encoding="iso-8859-1"?>
<!-- Generator: Adobe Illustrator 29.1.0, SVG Export Plug-In . SVG Version: 9.03 Build 55587)  -->
<svg version="1.1" xmlns="http://www.w3.org/2000/svg" xmlns:xlink="http://www.w3.org/1999/xlink" x="0px" y="0px"
	 viewBox="0 0 320.918 50" style="enable-background:new 0 0 320.918 50;" xml:space="preserve">
<g id="notagline">
	<g id="white">
		<g id="White">
			<path style="fill:#FFFFFF;" d="M58.238,50l13.692-25.022L58.285,0h3.416c1.87,0,4.142,1.358,5.045,3.012l12,21.966L66.706,46.99
				C65.799,48.647,63.527,50,61.659,50H58.238z"/>
			<path style="fill:#FFFFFF;" d="M54.893,13.878v22.354h-3.865V26.149H40.975v10.082h-3.867V13.878h3.867v8.892h10.053v-8.892
				H54.893z M33.241,36.231h-3.866V13.878h3.866V36.231z M25.565,36.231h-4.083L11.431,19.795h-0.094v16.436h-3.68V13.878h4.082
				l10.083,16.467h0.06V13.878h3.682V36.231z M68.518,24.978L54.858,0H4.546C2.036,0,0,2.062,0,4.603v40.794
				C0,47.938,2.036,50,4.546,50h50.265L68.518,24.978z"/>
		</g>
		<g>
			<path style="fill:#FFFFFF;" d="M103.578,33.84h-1.92l-0.456-2.016c-0.8,0.912-1.6,1.544-2.4,1.896
				c-0.8,0.353-1.72,0.528-2.76,0.528c-1.28,0-2.428-0.236-3.444-0.708s-1.876-1.116-2.58-1.932
				c-0.704-0.816-1.244-1.768-1.62-2.856c-0.376-1.088-0.564-2.248-0.564-3.479c0-1.216,0.188-2.368,0.564-3.456
				c0.375-1.088,0.916-2.04,1.62-2.856c0.704-0.815,1.564-1.464,2.58-1.944c1.016-0.479,2.164-0.72,3.444-0.72
				c0.928,0,1.812,0.124,2.652,0.372c0.84,0.248,1.588,0.616,2.244,1.104c0.656,0.488,1.2,1.1,1.632,1.836
				c0.432,0.735,0.704,1.584,0.816,2.544h-2.928c-0.08-0.561-0.252-1.052-0.516-1.477c-0.264-0.424-0.596-0.779-0.996-1.067
				c-0.4-0.288-0.848-0.504-1.344-0.648c-0.496-0.144-1.016-0.216-1.56-0.216c-0.912,0-1.701,0.184-2.364,0.552
				c-0.664,0.368-1.204,0.86-1.62,1.477s-0.724,1.315-0.924,2.1c-0.2,0.784-0.3,1.584-0.3,2.4c0,0.815,0.1,1.616,0.3,2.399
				c0.2,0.784,0.508,1.484,0.924,2.101s0.956,1.107,1.62,1.476c0.664,0.368,1.452,0.552,2.364,0.552
				c0.768,0.017,1.448-0.084,2.04-0.3s1.092-0.528,1.5-0.936c0.408-0.408,0.716-0.908,0.924-1.5c0.208-0.592,0.32-1.248,0.336-1.969
				h-4.56v-2.279h7.296V33.84z"/>
			<path style="fill:#FFFFFF;" d="M106.842,16.704h8.184c1.888,0,3.304,0.408,4.248,1.224c0.944,0.816,1.416,1.952,1.416,3.408
				c0,0.816-0.12,1.492-0.36,2.028c-0.24,0.536-0.52,0.968-0.84,1.296c-0.32,0.328-0.636,0.563-0.948,0.708
				c-0.312,0.144-0.54,0.24-0.684,0.288v0.048c0.256,0.032,0.532,0.112,0.828,0.24c0.296,0.128,0.572,0.332,0.828,0.611
				c0.256,0.28,0.468,0.645,0.636,1.093s0.252,1.008,0.252,1.68c0,1.008,0.076,1.924,0.228,2.748s0.388,1.412,0.708,1.764h-3.216
				c-0.224-0.367-0.356-0.775-0.396-1.224c-0.04-0.448-0.06-0.88-0.06-1.296c0-0.784-0.048-1.46-0.144-2.028
				c-0.096-0.567-0.272-1.04-0.528-1.416c-0.256-0.376-0.604-0.651-1.044-0.828c-0.44-0.176-1.004-0.264-1.692-0.264h-4.416v7.056
				h-3V16.704z M109.842,24.504h4.92c0.96,0,1.688-0.228,2.184-0.684c0.496-0.456,0.744-1.141,0.744-2.052
				c0-0.544-0.08-0.988-0.24-1.332c-0.16-0.345-0.38-0.612-0.66-0.805c-0.28-0.191-0.6-0.319-0.96-0.384
				c-0.36-0.063-0.732-0.096-1.116-0.096h-4.872V24.504z"/>
			<path style="fill:#FFFFFF;" d="M128.322,16.704h3.192l6.6,17.136h-3.216l-1.608-4.536h-6.84l-1.608,4.536h-3.096L128.322,16.704z
				 M127.266,27.024h5.232l-2.568-7.368h-0.072L127.266,27.024z"/>
			<path style="fill:#FFFFFF;" d="M139.625,16.704h3.168l7.824,12.624h0.048V16.704h2.856V33.84h-3.168l-7.8-12.6h-0.072v12.6
				h-2.856V16.704z"/>
			<path style="fill:#FFFFFF;" d="M155.441,16.704h13.873v2.592h-5.449V33.84h-3V19.296h-5.424V16.704z"/>
			<path style="fill:#FFFFFF;" d="M173.273,28.128c0,0.656,0.111,1.216,0.336,1.68c0.224,0.465,0.536,0.845,0.937,1.141
				c0.399,0.296,0.859,0.512,1.38,0.647c0.52,0.137,1.083,0.204,1.691,0.204c0.656,0,1.216-0.075,1.681-0.228
				c0.464-0.152,0.84-0.349,1.128-0.588c0.288-0.24,0.495-0.517,0.624-0.828c0.128-0.312,0.191-0.628,0.191-0.948
				c0-0.656-0.147-1.14-0.443-1.452c-0.297-0.312-0.621-0.531-0.973-0.66c-0.608-0.224-1.316-0.436-2.124-0.636
				s-1.804-0.46-2.987-0.78c-0.736-0.191-1.349-0.443-1.836-0.756c-0.488-0.312-0.877-0.66-1.164-1.044
				c-0.288-0.384-0.492-0.792-0.612-1.224c-0.12-0.433-0.18-0.872-0.18-1.32c0-0.864,0.18-1.611,0.54-2.244
				c0.359-0.632,0.835-1.155,1.428-1.571c0.592-0.416,1.264-0.725,2.016-0.925c0.752-0.199,1.512-0.3,2.28-0.3
				c0.896,0,1.74,0.116,2.532,0.349c0.792,0.231,1.487,0.58,2.088,1.044c0.6,0.464,1.075,1.036,1.428,1.716
				c0.352,0.68,0.528,1.468,0.528,2.364h-3c-0.08-1.104-0.456-1.885-1.128-2.341s-1.528-0.684-2.568-0.684
				c-0.353,0-0.712,0.036-1.08,0.108c-0.368,0.071-0.704,0.191-1.008,0.359c-0.305,0.168-0.557,0.396-0.756,0.685
				c-0.2,0.288-0.3,0.647-0.3,1.08c0,0.607,0.188,1.084,0.563,1.428s0.868,0.604,1.477,0.78c0.063,0.016,0.315,0.084,0.756,0.203
				c0.439,0.12,0.932,0.252,1.476,0.396c0.544,0.144,1.076,0.284,1.596,0.42c0.521,0.136,0.893,0.236,1.116,0.3
				c0.56,0.177,1.048,0.416,1.464,0.72c0.416,0.305,0.765,0.652,1.044,1.045c0.28,0.392,0.488,0.812,0.624,1.26
				s0.204,0.896,0.204,1.344c0,0.96-0.196,1.78-0.588,2.46c-0.393,0.681-0.908,1.236-1.548,1.668
				c-0.641,0.432-1.368,0.748-2.184,0.948c-0.816,0.2-1.648,0.3-2.496,0.3c-0.977,0-1.896-0.12-2.761-0.36
				c-0.863-0.239-1.616-0.607-2.256-1.104s-1.151-1.132-1.536-1.908c-0.384-0.775-0.584-1.691-0.6-2.748H173.273z"/>
			<path style="fill:#FFFFFF;" d="M202.673,31.92c-0.64,0.784-1.348,1.356-2.124,1.716c-0.776,0.36-1.668,0.54-2.676,0.54
				c-0.784,0-1.508-0.116-2.172-0.348s-1.236-0.564-1.716-0.996c-0.48-0.432-0.853-0.964-1.116-1.596s-0.396-1.348-0.396-2.148
				c0-0.607,0.112-1.16,0.336-1.656c0.225-0.495,0.521-0.947,0.889-1.355s0.788-0.771,1.26-1.092s0.956-0.608,1.452-0.864
				c-0.225-0.288-0.44-0.572-0.648-0.852c-0.208-0.28-0.392-0.572-0.552-0.877c-0.16-0.304-0.288-0.623-0.384-0.96
				c-0.096-0.336-0.145-0.688-0.145-1.056c0-0.624,0.108-1.184,0.324-1.68s0.517-0.924,0.9-1.284s0.832-0.636,1.344-0.828
				s1.056-0.288,1.632-0.288c0.544,0,1.076,0.084,1.597,0.252c0.52,0.168,0.976,0.425,1.367,0.769
				c0.393,0.344,0.708,0.771,0.948,1.283c0.24,0.513,0.36,1.112,0.36,1.801c0,0.512-0.084,0.983-0.252,1.416
				c-0.168,0.432-0.393,0.828-0.672,1.188c-0.28,0.36-0.608,0.685-0.984,0.973c-0.376,0.287-0.772,0.544-1.188,0.768l2.664,3.216
				c0.097-0.271,0.192-0.584,0.288-0.936c0.097-0.353,0.176-0.808,0.24-1.368h2.4c-0.081,0.752-0.229,1.488-0.444,2.208
				s-0.516,1.384-0.9,1.992l3.288,3.983h-3.359L202.673,31.92z M197.849,25.92c-0.256,0.16-0.536,0.32-0.84,0.48
				s-0.588,0.359-0.852,0.6s-0.488,0.528-0.672,0.864c-0.185,0.336-0.276,0.76-0.276,1.271c0,0.929,0.26,1.641,0.78,2.137
				c0.52,0.496,1.18,0.743,1.979,0.743c0.496,0,0.92-0.067,1.272-0.203c0.352-0.136,0.651-0.301,0.899-0.492
				c0.248-0.192,0.456-0.4,0.624-0.624s0.316-0.424,0.444-0.601L197.849,25.92z M198.953,18.336c-0.513,0-0.944,0.172-1.296,0.517
				c-0.353,0.344-0.528,0.804-0.528,1.38c0,0.288,0.052,0.556,0.156,0.804c0.104,0.248,0.231,0.488,0.384,0.72
				c0.152,0.232,0.32,0.46,0.504,0.685c0.184,0.224,0.356,0.439,0.517,0.647c0.256-0.176,0.504-0.355,0.743-0.54
				c0.24-0.184,0.456-0.384,0.648-0.6s0.344-0.46,0.456-0.732c0.111-0.271,0.168-0.576,0.168-0.912c0-0.56-0.16-1.027-0.48-1.403
				C199.905,18.524,199.481,18.336,198.953,18.336z"/>
			<path style="fill:#FFFFFF;" d="M215.754,16.704h11.832v2.592h-8.832v4.488h7.752v2.448h-7.752v7.607h-3V16.704z"/>
			<path style="fill:#FFFFFF;" d="M229.793,16.704h3v9.984c0,0.575,0.028,1.16,0.084,1.752s0.216,1.124,0.48,1.596
				c0.264,0.472,0.663,0.86,1.2,1.164c0.535,0.304,1.291,0.456,2.268,0.456c0.976,0,1.731-0.152,2.268-0.456s0.937-0.692,1.2-1.164
				c0.265-0.472,0.424-1.004,0.48-1.596c0.056-0.592,0.084-1.177,0.084-1.752v-9.984h3v10.968c0,1.104-0.168,2.064-0.504,2.88
				c-0.336,0.816-0.812,1.5-1.429,2.053c-0.616,0.552-1.355,0.964-2.22,1.235c-0.864,0.272-1.824,0.408-2.88,0.408
				s-2.016-0.136-2.88-0.408c-0.864-0.271-1.604-0.684-2.22-1.235c-0.616-0.553-1.093-1.236-1.429-2.053
				c-0.336-0.815-0.504-1.775-0.504-2.88V16.704z"/>
			<path style="fill:#FFFFFF;" d="M247.192,16.704h3.168l7.824,12.624h0.048V16.704h2.855V33.84h-3.168l-7.8-12.6h-0.072v12.6
				h-2.855V16.704z"/>
			<path style="fill:#FFFFFF;" d="M264.641,16.704h7.104c1.312,0,2.448,0.225,3.408,0.672c0.96,0.448,1.744,1.061,2.353,1.836
				c0.607,0.776,1.06,1.685,1.355,2.725s0.444,2.151,0.444,3.336c0,1.184-0.148,2.296-0.444,3.336s-0.748,1.948-1.355,2.724
				c-0.608,0.776-1.393,1.389-2.353,1.836c-0.96,0.448-2.096,0.672-3.408,0.672h-7.104V16.704z M267.641,31.391h2.952
				c1.167,0,2.124-0.155,2.867-0.468c0.744-0.312,1.328-0.744,1.753-1.296c0.423-0.552,0.711-1.2,0.863-1.943
				c0.152-0.744,0.229-1.549,0.229-2.412c0-0.864-0.076-1.668-0.229-2.412s-0.44-1.393-0.863-1.944
				c-0.425-0.552-1.009-0.984-1.753-1.296c-0.743-0.312-1.7-0.468-2.867-0.468h-2.952V31.391z"/>
			<path style="fill:#FFFFFF;" d="M281.968,16.704h3V33.84h-3V16.704z"/>
			<path style="fill:#FFFFFF;" d="M288.52,16.704h3.168l7.824,12.624h0.048V16.704h2.855V33.84h-3.168l-7.8-12.6h-0.072v12.6h-2.855
				V16.704z"/>
			<path style="fill:#FFFFFF;" d="M320.92,33.84H319l-0.456-2.016c-0.801,0.912-1.601,1.544-2.4,1.896
				c-0.8,0.353-1.72,0.528-2.76,0.528c-1.28,0-2.429-0.236-3.444-0.708c-1.017-0.472-1.876-1.116-2.58-1.932
				c-0.704-0.816-1.244-1.768-1.62-2.856c-0.376-1.088-0.563-2.248-0.563-3.479c0-1.216,0.188-2.368,0.563-3.456
				s0.916-2.04,1.62-2.856c0.704-0.815,1.563-1.464,2.58-1.944c1.016-0.479,2.164-0.72,3.444-0.72c0.928,0,1.812,0.124,2.651,0.372
				c0.841,0.248,1.588,0.616,2.244,1.104s1.2,1.1,1.632,1.836c0.433,0.735,0.704,1.584,0.816,2.544H317.8
				c-0.08-0.561-0.252-1.052-0.517-1.477c-0.264-0.424-0.596-0.779-0.996-1.067c-0.399-0.288-0.848-0.504-1.344-0.648
				c-0.496-0.144-1.016-0.216-1.56-0.216c-0.912,0-1.7,0.184-2.364,0.552s-1.204,0.86-1.62,1.477s-0.724,1.315-0.924,2.1
				s-0.3,1.584-0.3,2.4c0,0.815,0.1,1.616,0.3,2.399c0.2,0.784,0.508,1.484,0.924,2.101s0.956,1.107,1.62,1.476
				s1.452,0.552,2.364,0.552c0.768,0.017,1.447-0.084,2.04-0.3c0.592-0.216,1.092-0.528,1.5-0.936
				c0.408-0.408,0.716-0.908,0.924-1.5s0.319-1.248,0.336-1.969h-4.56v-2.279h7.296V33.84z"/>
		</g>
	</g>
	<g id="black" style="display:none;">
		<g id="Black" style="display:inline;">
			<path d="M58.238,50l13.692-25.022L58.285,0h3.416c1.87,0,4.142,1.358,5.045,3.012l12,21.966L66.706,46.99
				C65.799,48.647,63.527,50,61.659,50H58.238z"/>
			<path d="M54.893,13.878v22.354h-3.865V26.149H40.975v10.082h-3.867V13.878h3.867v8.892h10.053v-8.892H54.893z M33.241,36.231
				h-3.866V13.878h3.866V36.231z M25.565,36.231h-4.083L11.431,19.795h-0.094v16.436h-3.68V13.878h4.082l10.083,16.467h0.06V13.878
				h3.682V36.231z M68.518,24.978L54.858,0H4.546C2.036,0,0,2.062,0,4.603v40.794C0,47.938,2.036,50,4.546,50h50.265L68.518,24.978z
				"/>
		</g>
		<g style="display:inline;">
			<path d="M103.578,33.84h-1.92l-0.456-2.016c-0.8,0.912-1.6,1.544-2.4,1.896c-0.8,0.353-1.72,0.528-2.76,0.528
				c-1.28,0-2.428-0.236-3.444-0.708s-1.876-1.116-2.58-1.932c-0.704-0.816-1.244-1.768-1.62-2.856
				c-0.376-1.088-0.564-2.248-0.564-3.479c0-1.216,0.188-2.368,0.564-3.456c0.375-1.088,0.916-2.04,1.62-2.856
				c0.704-0.815,1.564-1.464,2.58-1.944c1.016-0.479,2.164-0.72,3.444-0.72c0.928,0,1.812,0.124,2.652,0.372
				c0.84,0.248,1.588,0.616,2.244,1.104c0.656,0.488,1.2,1.1,1.632,1.836c0.432,0.735,0.704,1.584,0.816,2.544h-2.928
				c-0.08-0.561-0.252-1.052-0.516-1.477c-0.264-0.424-0.596-0.779-0.996-1.067c-0.4-0.288-0.848-0.504-1.344-0.648
				c-0.496-0.144-1.016-0.216-1.56-0.216c-0.912,0-1.701,0.184-2.364,0.552c-0.664,0.368-1.204,0.86-1.62,1.477
				s-0.724,1.315-0.924,2.1c-0.2,0.784-0.3,1.584-0.3,2.4c0,0.815,0.1,1.616,0.3,2.399c0.2,0.784,0.508,1.484,0.924,2.101
				s0.956,1.107,1.62,1.476c0.664,0.368,1.452,0.552,2.364,0.552c0.768,0.017,1.448-0.084,2.04-0.3s1.092-0.528,1.5-0.936
				c0.408-0.408,0.716-0.908,0.924-1.5c0.208-0.592,0.32-1.248,0.336-1.969h-4.56v-2.279h7.296V33.84z"/>
			<path d="M106.842,16.704h8.184c1.888,0,3.304,0.408,4.248,1.224c0.944,0.816,1.416,1.952,1.416,3.408
				c0,0.816-0.12,1.492-0.36,2.028c-0.24,0.536-0.52,0.968-0.84,1.296c-0.32,0.328-0.636,0.563-0.948,0.708
				c-0.312,0.144-0.54,0.24-0.684,0.288v0.048c0.256,0.032,0.532,0.112,0.828,0.24c0.296,0.128,0.572,0.332,0.828,0.611
				c0.256,0.28,0.468,0.645,0.636,1.093s0.252,1.008,0.252,1.68c0,1.008,0.076,1.924,0.228,2.748s0.388,1.412,0.708,1.764h-3.216
				c-0.224-0.367-0.356-0.775-0.396-1.224c-0.04-0.448-0.06-0.88-0.06-1.296c0-0.784-0.048-1.46-0.144-2.028
				c-0.096-0.567-0.272-1.04-0.528-1.416c-0.256-0.376-0.604-0.651-1.044-0.828c-0.44-0.176-1.004-0.264-1.692-0.264h-4.416v7.056
				h-3V16.704z M109.842,24.504h4.92c0.96,0,1.688-0.228,2.184-0.684c0.496-0.456,0.744-1.141,0.744-2.052
				c0-0.544-0.08-0.988-0.24-1.332c-0.16-0.345-0.38-0.612-0.66-0.805c-0.28-0.191-0.6-0.319-0.96-0.384
				c-0.36-0.063-0.732-0.096-1.116-0.096h-4.872V24.504z"/>
			<path d="M128.322,16.704h3.192l6.6,17.136h-3.216l-1.608-4.536h-6.84l-1.608,4.536h-3.096L128.322,16.704z M127.266,27.024h5.232
				l-2.568-7.368h-0.072L127.266,27.024z"/>
			<path d="M139.625,16.704h3.168l7.824,12.624h0.048V16.704h2.856V33.84h-3.168l-7.8-12.6h-0.072v12.6h-2.856V16.704z"/>
			<path d="M155.441,16.704h13.873v2.592h-5.449V33.84h-3V19.296h-5.424V16.704z"/>
			<path d="M173.273,28.128c0,0.656,0.111,1.216,0.336,1.68c0.224,0.465,0.536,0.845,0.937,1.141
				c0.399,0.296,0.859,0.512,1.38,0.647c0.52,0.137,1.083,0.204,1.691,0.204c0.656,0,1.216-0.075,1.681-0.228
				c0.464-0.152,0.84-0.349,1.128-0.588c0.288-0.24,0.495-0.517,0.624-0.828c0.128-0.312,0.191-0.628,0.191-0.948
				c0-0.656-0.147-1.14-0.443-1.452c-0.297-0.312-0.621-0.531-0.973-0.66c-0.608-0.224-1.316-0.436-2.124-0.636
				s-1.804-0.46-2.987-0.78c-0.736-0.191-1.349-0.443-1.836-0.756c-0.488-0.312-0.877-0.66-1.164-1.044
				c-0.288-0.384-0.492-0.792-0.612-1.224c-0.12-0.433-0.18-0.872-0.18-1.32c0-0.864,0.18-1.611,0.54-2.244
				c0.359-0.632,0.835-1.155,1.428-1.571c0.592-0.416,1.264-0.725,2.016-0.925c0.752-0.199,1.512-0.3,2.28-0.3
				c0.896,0,1.74,0.116,2.532,0.349c0.792,0.231,1.487,0.58,2.088,1.044c0.6,0.464,1.075,1.036,1.428,1.716
				c0.352,0.68,0.528,1.468,0.528,2.364h-3c-0.08-1.104-0.456-1.885-1.128-2.341s-1.528-0.684-2.568-0.684
				c-0.353,0-0.712,0.036-1.08,0.108c-0.368,0.071-0.704,0.191-1.008,0.359c-0.305,0.168-0.557,0.396-0.756,0.685
				c-0.2,0.288-0.3,0.647-0.3,1.08c0,0.607,0.188,1.084,0.563,1.428s0.868,0.604,1.477,0.78c0.063,0.016,0.315,0.084,0.756,0.203
				c0.439,0.12,0.932,0.252,1.476,0.396c0.544,0.144,1.076,0.284,1.596,0.42c0.521,0.136,0.893,0.236,1.116,0.3
				c0.56,0.177,1.048,0.416,1.464,0.72c0.416,0.305,0.765,0.652,1.044,1.045c0.28,0.392,0.488,0.812,0.624,1.26
				s0.204,0.896,0.204,1.344c0,0.96-0.196,1.78-0.588,2.46c-0.393,0.681-0.908,1.236-1.548,1.668
				c-0.641,0.432-1.368,0.748-2.184,0.948c-0.816,0.2-1.648,0.3-2.496,0.3c-0.977,0-1.896-0.12-2.761-0.36
				c-0.863-0.239-1.616-0.607-2.256-1.104s-1.151-1.132-1.536-1.908c-0.384-0.775-0.584-1.691-0.6-2.748H173.273z"/>
			<path d="M202.673,31.92c-0.64,0.784-1.348,1.356-2.124,1.716c-0.776,0.36-1.668,0.54-2.676,0.54
				c-0.784,0-1.508-0.116-2.172-0.348s-1.236-0.564-1.716-0.996c-0.48-0.432-0.853-0.964-1.116-1.596s-0.396-1.348-0.396-2.148
				c0-0.607,0.112-1.16,0.336-1.656c0.225-0.495,0.521-0.947,0.889-1.355s0.788-0.771,1.26-1.092s0.956-0.608,1.452-0.864
				c-0.225-0.288-0.44-0.572-0.648-0.852c-0.208-0.28-0.392-0.572-0.552-0.877c-0.16-0.304-0.288-0.623-0.384-0.96
				c-0.096-0.336-0.145-0.688-0.145-1.056c0-0.624,0.108-1.184,0.324-1.68s0.517-0.924,0.9-1.284s0.832-0.636,1.344-0.828
				s1.056-0.288,1.632-0.288c0.544,0,1.076,0.084,1.597,0.252c0.52,0.168,0.976,0.425,1.367,0.769
				c0.393,0.344,0.708,0.771,0.948,1.283c0.24,0.513,0.36,1.112,0.36,1.801c0,0.512-0.084,0.983-0.252,1.416
				c-0.168,0.432-0.393,0.828-0.672,1.188c-0.28,0.36-0.608,0.685-0.984,0.973c-0.376,0.287-0.772,0.544-1.188,0.768l2.664,3.216
				c0.097-0.271,0.192-0.584,0.288-0.936c0.097-0.353,0.176-0.808,0.24-1.368h2.4c-0.081,0.752-0.229,1.488-0.444,2.208
				s-0.516,1.384-0.9,1.992l3.288,3.983h-3.359L202.673,31.92z M197.849,25.92c-0.256,0.16-0.536,0.32-0.84,0.48
				s-0.588,0.359-0.852,0.6s-0.488,0.528-0.672,0.864c-0.185,0.336-0.276,0.76-0.276,1.271c0,0.929,0.26,1.641,0.78,2.137
				c0.52,0.496,1.18,0.743,1.979,0.743c0.496,0,0.92-0.067,1.272-0.203c0.352-0.136,0.651-0.301,0.899-0.492
				c0.248-0.192,0.456-0.4,0.624-0.624s0.316-0.424,0.444-0.601L197.849,25.92z M198.953,18.336c-0.513,0-0.944,0.172-1.296,0.517
				c-0.353,0.344-0.528,0.804-0.528,1.38c0,0.288,0.052,0.556,0.156,0.804c0.104,0.248,0.231,0.488,0.384,0.72
				c0.152,0.232,0.32,0.46,0.504,0.685c0.184,0.224,0.356,0.439,0.517,0.647c0.256-0.176,0.504-0.355,0.743-0.54
				c0.24-0.184,0.456-0.384,0.648-0.6s0.344-0.46,0.456-0.732c0.111-0.271,0.168-0.576,0.168-0.912c0-0.56-0.16-1.027-0.48-1.403
				C199.905,18.524,199.481,18.336,198.953,18.336z"/>
			<path d="M215.754,16.704h11.832v2.592h-8.832v4.488h7.752v2.448h-7.752v7.607h-3V16.704z"/>
			<path d="M229.793,16.704h3v9.984c0,0.575,0.028,1.16,0.084,1.752s0.216,1.124,0.48,1.596c0.264,0.472,0.663,0.86,1.2,1.164
				c0.535,0.304,1.291,0.456,2.268,0.456c0.976,0,1.731-0.152,2.268-0.456s0.937-0.692,1.2-1.164
				c0.265-0.472,0.424-1.004,0.48-1.596c0.056-0.592,0.084-1.177,0.084-1.752v-9.984h3v10.968c0,1.104-0.168,2.064-0.504,2.88
				c-0.336,0.816-0.812,1.5-1.429,2.053c-0.616,0.552-1.355,0.964-2.22,1.235c-0.864,0.272-1.824,0.408-2.88,0.408
				s-2.016-0.136-2.88-0.408c-0.864-0.271-1.604-0.684-2.22-1.235c-0.616-0.553-1.093-1.236-1.429-2.053
				c-0.336-0.815-0.504-1.775-0.504-2.88V16.704z"/>
			<path d="M247.192,16.704h3.168l7.824,12.624h0.048V16.704h2.855V33.84h-3.168l-7.8-12.6h-0.072v12.6h-2.855V16.704z"/>
			<path d="M264.641,16.704h7.104c1.312,0,2.448,0.225,3.408,0.672c0.96,0.448,1.744,1.061,2.353,1.836
				c0.607,0.776,1.06,1.685,1.355,2.725s0.444,2.151,0.444,3.336c0,1.184-0.148,2.296-0.444,3.336s-0.748,1.948-1.355,2.724
				c-0.608,0.776-1.393,1.389-2.353,1.836c-0.96,0.448-2.096,0.672-3.408,0.672h-7.104V16.704z M267.641,31.391h2.952
				c1.167,0,2.124-0.155,2.867-0.468c0.744-0.312,1.328-0.744,1.753-1.296c0.423-0.552,0.711-1.2,0.863-1.943
				c0.152-0.744,0.229-1.549,0.229-2.412c0-0.864-0.076-1.668-0.229-2.412s-0.44-1.393-0.863-1.944
				c-0.425-0.552-1.009-0.984-1.753-1.296c-0.743-0.312-1.7-0.468-2.867-0.468h-2.952V31.391z"/>
			<path d="M281.968,16.704h3V33.84h-3V16.704z"/>
			<path d="M288.52,16.704h3.168l7.824,12.624h0.048V16.704h2.855V33.84h-3.168l-7.8-12.6h-0.072v12.6h-2.855V16.704z"/>
			<path d="M320.92,33.84H319l-0.456-2.016c-0.801,0.912-1.601,1.544-2.4,1.896c-0.8,0.353-1.72,0.528-2.76,0.528
				c-1.28,0-2.429-0.236-3.444-0.708c-1.017-0.472-1.876-1.116-2.58-1.932c-0.704-0.816-1.244-1.768-1.62-2.856
				c-0.376-1.088-0.563-2.248-0.563-3.479c0-1.216,0.188-2.368,0.563-3.456s0.916-2.04,1.62-2.856
				c0.704-0.815,1.563-1.464,2.58-1.944c1.016-0.479,2.164-0.72,3.444-0.72c0.928,0,1.812,0.124,2.651,0.372
				c0.841,0.248,1.588,0.616,2.244,1.104s1.2,1.1,1.632,1.836c0.433,0.735,0.704,1.584,0.816,2.544H317.8
				c-0.08-0.561-0.252-1.052-0.517-1.477c-0.264-0.424-0.596-0.779-0.996-1.067c-0.399-0.288-0.848-0.504-1.344-0.648
				c-0.496-0.144-1.016-0.216-1.56-0.216c-0.912,0-1.7,0.184-2.364,0.552s-1.204,0.86-1.62,1.477s-0.724,1.315-0.924,2.1
				s-0.3,1.584-0.3,2.4c0,0.815,0.1,1.616,0.3,2.399c0.2,0.784,0.508,1.484,0.924,2.101s0.956,1.107,1.62,1.476
				s1.452,0.552,2.364,0.552c0.768,0.017,1.447-0.084,2.04-0.3c0.592-0.216,1.092-0.528,1.5-0.936
				c0.408-0.408,0.716-0.908,0.924-1.5s0.319-1.248,0.336-1.969h-4.56v-2.279h7.296V33.84z"/>
		</g>
	</g>
	<g id="blue" style="display:none;">
		<g id="Blue" style="display:inline;">
			<path style="fill:#316094;" d="M58.238,50l13.692-25.022L58.285,0h3.416c1.87,0,4.142,1.358,5.045,3.012l12,21.966L66.706,46.99
				C65.799,48.647,63.527,50,61.659,50H58.238z"/>
			<path style="fill:#316094;" d="M54.893,13.878v22.354h-3.865V26.149H40.975v10.082h-3.867V13.878h3.867v8.892h10.053v-8.892
				H54.893z M33.241,36.231h-3.866V13.878h3.866V36.231z M25.565,36.231h-4.083L11.431,19.795h-0.094v16.436h-3.68V13.878h4.082
				l10.083,16.467h0.06V13.878h3.682V36.231z M68.518,24.978L54.858,0H4.546C2.036,0,0,2.062,0,4.603v40.794
				C0,47.938,2.036,50,4.546,50h50.265L68.518,24.978z"/>
		</g>
		<g style="display:inline;">
			<path style="fill:#316094;" d="M103.578,33.84h-1.92l-0.456-2.016c-0.8,0.912-1.6,1.544-2.4,1.896
				c-0.8,0.353-1.72,0.528-2.76,0.528c-1.28,0-2.428-0.236-3.444-0.708s-1.876-1.116-2.58-1.932
				c-0.704-0.816-1.244-1.768-1.62-2.856c-0.376-1.088-0.564-2.248-0.564-3.479c0-1.216,0.188-2.368,0.564-3.456
				c0.375-1.088,0.916-2.04,1.62-2.856c0.704-0.815,1.564-1.464,2.58-1.944c1.016-0.479,2.164-0.72,3.444-0.72
				c0.928,0,1.812,0.124,2.652,0.372c0.84,0.248,1.588,0.616,2.244,1.104c0.656,0.488,1.2,1.1,1.632,1.836
				c0.432,0.735,0.704,1.584,0.816,2.544h-2.928c-0.08-0.561-0.252-1.052-0.516-1.477c-0.264-0.424-0.596-0.779-0.996-1.067
				c-0.4-0.288-0.848-0.504-1.344-0.648c-0.496-0.144-1.016-0.216-1.56-0.216c-0.912,0-1.701,0.184-2.364,0.552
				c-0.664,0.368-1.204,0.86-1.62,1.477s-0.724,1.315-0.924,2.1c-0.2,0.784-0.3,1.584-0.3,2.4c0,0.815,0.1,1.616,0.3,2.399
				c0.2,0.784,0.508,1.484,0.924,2.101s0.956,1.107,1.62,1.476c0.664,0.368,1.452,0.552,2.364,0.552
				c0.768,0.017,1.448-0.084,2.04-0.3s1.092-0.528,1.5-0.936c0.408-0.408,0.716-0.908,0.924-1.5c0.208-0.592,0.32-1.248,0.336-1.969
				h-4.56v-2.279h7.296V33.84z"/>
			<path style="fill:#316094;" d="M106.842,16.704h8.184c1.888,0,3.304,0.408,4.248,1.224c0.944,0.816,1.416,1.952,1.416,3.408
				c0,0.816-0.12,1.492-0.36,2.028c-0.24,0.536-0.52,0.968-0.84,1.296c-0.32,0.328-0.636,0.563-0.948,0.708
				c-0.312,0.144-0.54,0.24-0.684,0.288v0.048c0.256,0.032,0.532,0.112,0.828,0.24c0.296,0.128,0.572,0.332,0.828,0.611
				c0.256,0.28,0.468,0.645,0.636,1.093s0.252,1.008,0.252,1.68c0,1.008,0.076,1.924,0.228,2.748s0.388,1.412,0.708,1.764h-3.216
				c-0.224-0.367-0.356-0.775-0.396-1.224c-0.04-0.448-0.06-0.88-0.06-1.296c0-0.784-0.048-1.46-0.144-2.028
				c-0.096-0.567-0.272-1.04-0.528-1.416c-0.256-0.376-0.604-0.651-1.044-0.828c-0.44-0.176-1.004-0.264-1.692-0.264h-4.416v7.056
				h-3V16.704z M109.842,24.504h4.92c0.96,0,1.688-0.228,2.184-0.684c0.496-0.456,0.744-1.141,0.744-2.052
				c0-0.544-0.08-0.988-0.24-1.332c-0.16-0.345-0.38-0.612-0.66-0.805c-0.28-0.191-0.6-0.319-0.96-0.384
				c-0.36-0.063-0.732-0.096-1.116-0.096h-4.872V24.504z"/>
			<path style="fill:#316094;" d="M128.322,16.704h3.192l6.6,17.136h-3.216l-1.608-4.536h-6.84l-1.608,4.536h-3.096L128.322,16.704z
				 M127.266,27.024h5.232l-2.568-7.368h-0.072L127.266,27.024z"/>
			<path style="fill:#316094;" d="M139.625,16.704h3.168l7.824,12.624h0.048V16.704h2.856V33.84h-3.168l-7.8-12.6h-0.072v12.6
				h-2.856V16.704z"/>
			<path style="fill:#316094;" d="M155.441,16.704h13.873v2.592h-5.449V33.84h-3V19.296h-5.424V16.704z"/>
			<path style="fill:#316094;" d="M173.273,28.128c0,0.656,0.111,1.216,0.336,1.68c0.224,0.465,0.536,0.845,0.937,1.141
				c0.399,0.296,0.859,0.512,1.38,0.647c0.52,0.137,1.083,0.204,1.691,0.204c0.656,0,1.216-0.075,1.681-0.228
				c0.464-0.152,0.84-0.349,1.128-0.588c0.288-0.24,0.495-0.517,0.624-0.828c0.128-0.312,0.191-0.628,0.191-0.948
				c0-0.656-0.147-1.14-0.443-1.452c-0.297-0.312-0.621-0.531-0.973-0.66c-0.608-0.224-1.316-0.436-2.124-0.636
				s-1.804-0.46-2.987-0.78c-0.736-0.191-1.349-0.443-1.836-0.756c-0.488-0.312-0.877-0.66-1.164-1.044
				c-0.288-0.384-0.492-0.792-0.612-1.224c-0.12-0.433-0.18-0.872-0.18-1.32c0-0.864,0.18-1.611,0.54-2.244
				c0.359-0.632,0.835-1.155,1.428-1.571c0.592-0.416,1.264-0.725,2.016-0.925c0.752-0.199,1.512-0.3,2.28-0.3
				c0.896,0,1.74,0.116,2.532,0.349c0.792,0.231,1.487,0.58,2.088,1.044c0.6,0.464,1.075,1.036,1.428,1.716
				c0.352,0.68,0.528,1.468,0.528,2.364h-3c-0.08-1.104-0.456-1.885-1.128-2.341s-1.528-0.684-2.568-0.684
				c-0.353,0-0.712,0.036-1.08,0.108c-0.368,0.071-0.704,0.191-1.008,0.359c-0.305,0.168-0.557,0.396-0.756,0.685
				c-0.2,0.288-0.3,0.647-0.3,1.08c0,0.607,0.188,1.084,0.563,1.428s0.868,0.604,1.477,0.78c0.063,0.016,0.315,0.084,0.756,0.203
				c0.439,0.12,0.932,0.252,1.476,0.396c0.544,0.144,1.076,0.284,1.596,0.42c0.521,0.136,0.893,0.236,1.116,0.3
				c0.56,0.177,1.048,0.416,1.464,0.72c0.416,0.305,0.765,0.652,1.044,1.045c0.28,0.392,0.488,0.812,0.624,1.26
				s0.204,0.896,0.204,1.344c0,0.96-0.196,1.78-0.588,2.46c-0.393,0.681-0.908,1.236-1.548,1.668
				c-0.641,0.432-1.368,0.748-2.184,0.948c-0.816,0.2-1.648,0.3-2.496,0.3c-0.977,0-1.896-0.12-2.761-0.36
				c-0.863-0.239-1.616-0.607-2.256-1.104s-1.151-1.132-1.536-1.908c-0.384-0.775-0.584-1.691-0.6-2.748H173.273z"/>
			<path style="fill:#316094;" d="M202.673,31.92c-0.64,0.784-1.348,1.356-2.124,1.716c-0.776,0.36-1.668,0.54-2.676,0.54
				c-0.784,0-1.508-0.116-2.172-0.348s-1.236-0.564-1.716-0.996c-0.48-0.432-0.853-0.964-1.116-1.596s-0.396-1.348-0.396-2.148
				c0-0.607,0.112-1.16,0.336-1.656c0.225-0.495,0.521-0.947,0.889-1.355s0.788-0.771,1.26-1.092s0.956-0.608,1.452-0.864
				c-0.225-0.288-0.44-0.572-0.648-0.852c-0.208-0.28-0.392-0.572-0.552-0.877c-0.16-0.304-0.288-0.623-0.384-0.96
				c-0.096-0.336-0.145-0.688-0.145-1.056c0-0.624,0.108-1.184,0.324-1.68s0.517-0.924,0.9-1.284s0.832-0.636,1.344-0.828
				s1.056-0.288,1.632-0.288c0.544,0,1.076,0.084,1.597,0.252c0.52,0.168,0.976,0.425,1.367,0.769
				c0.393,0.344,0.708,0.771,0.948,1.283c0.24,0.513,0.36,1.112,0.36,1.801c0,0.512-0.084,0.983-0.252,1.416
				c-0.168,0.432-0.393,0.828-0.672,1.188c-0.28,0.36-0.608,0.685-0.984,0.973c-0.376,0.287-0.772,0.544-1.188,0.768l2.664,3.216
				c0.097-0.271,0.192-0.584,0.288-0.936c0.097-0.353,0.176-0.808,0.24-1.368h2.4c-0.081,0.752-0.229,1.488-0.444,2.208
				s-0.516,1.384-0.9,1.992l3.288,3.983h-3.359L202.673,31.92z M197.849,25.92c-0.256,0.16-0.536,0.32-0.84,0.48
				s-0.588,0.359-0.852,0.6s-0.488,0.528-0.672,0.864c-0.185,0.336-0.276,0.76-0.276,1.271c0,0.929,0.26,1.641,0.78,2.137
				c0.52,0.496,1.18,0.743,1.979,0.743c0.496,0,0.92-0.067,1.272-0.203c0.352-0.136,0.651-0.301,0.899-0.492
				c0.248-0.192,0.456-0.4,0.624-0.624s0.316-0.424,0.444-0.601L197.849,25.92z M198.953,18.336c-0.513,0-0.944,0.172-1.296,0.517
				c-0.353,0.344-0.528,0.804-0.528,1.38c0,0.288,0.052,0.556,0.156,0.804c0.104,0.248,0.231,0.488,0.384,0.72
				c0.152,0.232,0.32,0.46,0.504,0.685c0.184,0.224,0.356,0.439,0.517,0.647c0.256-0.176,0.504-0.355,0.743-0.54
				c0.24-0.184,0.456-0.384,0.648-0.6s0.344-0.46,0.456-0.732c0.111-0.271,0.168-0.576,0.168-0.912c0-0.56-0.16-1.027-0.48-1.403
				C199.905,18.524,199.481,18.336,198.953,18.336z"/>
			<path style="fill:#316094;" d="M215.754,16.704h11.832v2.592h-8.832v4.488h7.752v2.448h-7.752v7.607h-3V16.704z"/>
			<path style="fill:#316094;" d="M229.793,16.704h3v9.984c0,0.575,0.028,1.16,0.084,1.752s0.216,1.124,0.48,1.596
				c0.264,0.472,0.663,0.86,1.2,1.164c0.535,0.304,1.291,0.456,2.268,0.456c0.976,0,1.731-0.152,2.268-0.456s0.937-0.692,1.2-1.164
				c0.265-0.472,0.424-1.004,0.48-1.596c0.056-0.592,0.084-1.177,0.084-1.752v-9.984h3v10.968c0,1.104-0.168,2.064-0.504,2.88
				c-0.336,0.816-0.812,1.5-1.429,2.053c-0.616,0.552-1.355,0.964-2.22,1.235c-0.864,0.272-1.824,0.408-2.88,0.408
				s-2.016-0.136-2.88-0.408c-0.864-0.271-1.604-0.684-2.22-1.235c-0.616-0.553-1.093-1.236-1.429-2.053
				c-0.336-0.815-0.504-1.775-0.504-2.88V16.704z"/>
			<path style="fill:#316094;" d="M247.192,16.704h3.168l7.824,12.624h0.048V16.704h2.855V33.84h-3.168l-7.8-12.6h-0.072v12.6
				h-2.855V16.704z"/>
			<path style="fill:#316094;" d="M264.641,16.704h7.104c1.312,0,2.448,0.225,3.408,0.672c0.96,0.448,1.744,1.061,2.353,1.836
				c0.607,0.776,1.06,1.685,1.355,2.725s0.444,2.151,0.444,3.336c0,1.184-0.148,2.296-0.444,3.336s-0.748,1.948-1.355,2.724
				c-0.608,0.776-1.393,1.389-2.353,1.836c-0.96,0.448-2.096,0.672-3.408,0.672h-7.104V16.704z M267.641,31.391h2.952
				c1.167,0,2.124-0.155,2.867-0.468c0.744-0.312,1.328-0.744,1.753-1.296c0.423-0.552,0.711-1.2,0.863-1.943
				c0.152-0.744,0.229-1.549,0.229-2.412c0-0.864-0.076-1.668-0.229-2.412s-0.44-1.393-0.863-1.944
				c-0.425-0.552-1.009-0.984-1.753-1.296c-0.743-0.312-1.7-0.468-2.867-0.468h-2.952V31.391z"/>
			<path style="fill:#316094;" d="M281.968,16.704h3V33.84h-3V16.704z"/>
			<path style="fill:#316094;" d="M288.52,16.704h3.168l7.824,12.624h0.048V16.704h2.855V33.84h-3.168l-7.8-12.6h-0.072v12.6h-2.855
				V16.704z"/>
			<path style="fill:#316094;" d="M320.92,33.84H319l-0.456-2.016c-0.801,0.912-1.601,1.544-2.4,1.896
				c-0.8,0.353-1.72,0.528-2.76,0.528c-1.28,0-2.429-0.236-3.444-0.708c-1.017-0.472-1.876-1.116-2.58-1.932
				c-0.704-0.816-1.244-1.768-1.62-2.856c-0.376-1.088-0.563-2.248-0.563-3.479c0-1.216,0.188-2.368,0.563-3.456
				s0.916-2.04,1.62-2.856c0.704-0.815,1.563-1.464,2.58-1.944c1.016-0.479,2.164-0.72,3.444-0.72c0.928,0,1.812,0.124,2.651,0.372
				c0.841,0.248,1.588,0.616,2.244,1.104s1.2,1.1,1.632,1.836c0.433,0.735,0.704,1.584,0.816,2.544H317.8
				c-0.08-0.561-0.252-1.052-0.517-1.477c-0.264-0.424-0.596-0.779-0.996-1.067c-0.399-0.288-0.848-0.504-1.344-0.648
				c-0.496-0.144-1.016-0.216-1.56-0.216c-0.912,0-1.7,0.184-2.364,0.552s-1.204,0.86-1.62,1.477s-0.724,1.315-0.924,2.1
				s-0.3,1.584-0.3,2.4c0,0.815,0.1,1.616,0.3,2.399c0.2,0.784,0.508,1.484,0.924,2.101s0.956,1.107,1.62,1.476
				s1.452,0.552,2.364,0.552c0.768,0.017,1.447-0.084,2.04-0.3c0.592-0.216,1.092-0.528,1.5-0.936
				c0.408-0.408,0.716-0.908,0.924-1.5s0.319-1.248,0.336-1.969h-4.56v-2.279h7.296V33.84z"/>
		</g>
	</g>
	<g id="default">
		<g id="Colored">
			<path style="fill:#316094;" d="M58.238,50.025l13.692-25.023L58.285,0.025h3.416c1.87,0,4.142,1.358,5.045,3.012l12,21.966
				l-12.04,22.013c-0.906,1.657-3.178,3.01-5.047,3.01H58.238z"/>
			<path style="fill:#636569;" d="M54.893,13.903v22.354h-3.865V26.174H40.975v10.082h-3.867V13.903h3.867v8.892h10.053v-8.892
				H54.893z M33.241,36.256h-3.866V13.903h3.866V36.256z M25.565,36.256h-4.083L11.431,19.82h-0.094v16.437h-3.68V13.903h4.082
				L21.823,30.37h0.06V13.903h3.682V36.256z M68.518,25.003L54.858,0.025H4.546C2.036,0.025,0,2.087,0,4.628v40.794
				c0,2.542,2.036,4.604,4.546,4.604h50.265L68.518,25.003z"/>
		</g>
		<g>
			<path style="fill:#316094;" d="M103.578,33.84h-1.92l-0.456-2.016c-0.8,0.912-1.6,1.544-2.4,1.896
				c-0.8,0.353-1.72,0.528-2.76,0.528c-1.28,0-2.428-0.236-3.444-0.708s-1.876-1.116-2.58-1.932
				c-0.704-0.816-1.244-1.768-1.62-2.856c-0.376-1.088-0.564-2.248-0.564-3.479c0-1.216,0.188-2.368,0.564-3.456
				c0.375-1.088,0.916-2.04,1.62-2.856c0.704-0.815,1.564-1.464,2.58-1.944c1.016-0.479,2.164-0.72,3.444-0.72
				c0.928,0,1.812,0.124,2.652,0.372c0.84,0.248,1.588,0.616,2.244,1.104c0.656,0.488,1.2,1.1,1.632,1.836
				c0.432,0.735,0.704,1.584,0.816,2.544h-2.928c-0.08-0.561-0.252-1.052-0.516-1.477c-0.264-0.424-0.596-0.779-0.996-1.067
				c-0.4-0.288-0.848-0.504-1.344-0.648c-0.496-0.144-1.016-0.216-1.56-0.216c-0.912,0-1.701,0.184-2.364,0.552
				c-0.664,0.368-1.204,0.86-1.62,1.477s-0.724,1.315-0.924,2.1c-0.2,0.784-0.3,1.584-0.3,2.4c0,0.815,0.1,1.616,0.3,2.399
				c0.2,0.784,0.508,1.484,0.924,2.101s0.956,1.107,1.62,1.476c0.664,0.368,1.452,0.552,2.364,0.552
				c0.768,0.017,1.448-0.084,2.04-0.3s1.092-0.528,1.5-0.936c0.408-0.408,0.716-0.908,0.924-1.5c0.208-0.592,0.32-1.248,0.336-1.969
				h-4.56v-2.279h7.296V33.84z"/>
			<path style="fill:#316094;" d="M106.842,16.704h8.184c1.888,0,3.304,0.408,4.248,1.224c0.944,0.816,1.416,1.952,1.416,3.408
				c0,0.816-0.12,1.492-0.36,2.028c-0.24,0.536-0.52,0.968-0.84,1.296c-0.32,0.328-0.636,0.563-0.948,0.708
				c-0.312,0.144-0.54,0.24-0.684,0.288v0.048c0.256,0.032,0.532,0.112,0.828,0.24c0.296,0.128,0.572,0.332,0.828,0.611
				c0.256,0.28,0.468,0.645,0.636,1.093s0.252,1.008,0.252,1.68c0,1.008,0.076,1.924,0.228,2.748s0.388,1.412,0.708,1.764h-3.216
				c-0.224-0.367-0.356-0.775-0.396-1.224c-0.04-0.448-0.06-0.88-0.06-1.296c0-0.784-0.048-1.46-0.144-2.028
				c-0.096-0.567-0.272-1.04-0.528-1.416c-0.256-0.376-0.604-0.651-1.044-0.828c-0.44-0.176-1.004-0.264-1.692-0.264h-4.416v7.056
				h-3V16.704z M109.842,24.504h4.92c0.96,0,1.688-0.228,2.184-0.684c0.496-0.456,0.744-1.141,0.744-2.052
				c0-0.544-0.08-0.988-0.24-1.332c-0.16-0.345-0.38-0.612-0.66-0.805c-0.28-0.191-0.6-0.319-0.96-0.384
				c-0.36-0.063-0.732-0.096-1.116-0.096h-4.872V24.504z"/>
			<path style="fill:#316094;" d="M128.322,16.704h3.192l6.6,17.136h-3.216l-1.608-4.536h-6.84l-1.608,4.536h-3.096L128.322,16.704z
				 M127.266,27.024h5.232l-2.568-7.368h-0.072L127.266,27.024z"/>
			<path style="fill:#316094;" d="M139.625,16.704h3.168l7.824,12.624h0.048V16.704h2.856V33.84h-3.168l-7.8-12.6h-0.072v12.6
				h-2.856V16.704z"/>
			<path style="fill:#316094;" d="M155.441,16.704h13.873v2.592h-5.449V33.84h-3V19.296h-5.424V16.704z"/>
			<path style="fill:#316094;" d="M173.273,28.128c0,0.656,0.111,1.216,0.336,1.68c0.224,0.465,0.536,0.845,0.937,1.141
				c0.399,0.296,0.859,0.512,1.38,0.647c0.52,0.137,1.083,0.204,1.691,0.204c0.656,0,1.216-0.075,1.681-0.228
				c0.464-0.152,0.84-0.349,1.128-0.588c0.288-0.24,0.495-0.517,0.624-0.828c0.128-0.312,0.191-0.628,0.191-0.948
				c0-0.656-0.147-1.14-0.443-1.452c-0.297-0.312-0.621-0.531-0.973-0.66c-0.608-0.224-1.316-0.436-2.124-0.636
				s-1.804-0.46-2.987-0.78c-0.736-0.191-1.349-0.443-1.836-0.756c-0.488-0.312-0.877-0.66-1.164-1.044
				c-0.288-0.384-0.492-0.792-0.612-1.224c-0.12-0.433-0.18-0.872-0.18-1.32c0-0.864,0.18-1.611,0.54-2.244
				c0.359-0.632,0.835-1.155,1.428-1.571c0.592-0.416,1.264-0.725,2.016-0.925c0.752-0.199,1.512-0.3,2.28-0.3
				c0.896,0,1.74,0.116,2.532,0.349c0.792,0.231,1.487,0.58,2.088,1.044c0.6,0.464,1.075,1.036,1.428,1.716
				c0.352,0.68,0.528,1.468,0.528,2.364h-3c-0.08-1.104-0.456-1.885-1.128-2.341s-1.528-0.684-2.568-0.684
				c-0.353,0-0.712,0.036-1.08,0.108c-0.368,0.071-0.704,0.191-1.008,0.359c-0.305,0.168-0.557,0.396-0.756,0.685
				c-0.2,0.288-0.3,0.647-0.3,1.08c0,0.607,0.188,1.084,0.563,1.428s0.868,0.604,1.477,0.78c0.063,0.016,0.315,0.084,0.756,0.203
				c0.439,0.12,0.932,0.252,1.476,0.396c0.544,0.144,1.076,0.284,1.596,0.42c0.521,0.136,0.893,0.236,1.116,0.3
				c0.56,0.177,1.048,0.416,1.464,0.72c0.416,0.305,0.765,0.652,1.044,1.045c0.28,0.392,0.488,0.812,0.624,1.26
				s0.204,0.896,0.204,1.344c0,0.96-0.196,1.78-0.588,2.46c-0.393,0.681-0.908,1.236-1.548,1.668
				c-0.641,0.432-1.368,0.748-2.184,0.948c-0.816,0.2-1.648,0.3-2.496,0.3c-0.977,0-1.896-0.12-2.761-0.36
				c-0.863-0.239-1.616-0.607-2.256-1.104s-1.151-1.132-1.536-1.908c-0.384-0.775-0.584-1.691-0.6-2.748H173.273z"/>
			<path style="fill:#316094;" d="M202.673,31.92c-0.64,0.784-1.348,1.356-2.124,1.716c-0.776,0.36-1.668,0.54-2.676,0.54
				c-0.784,0-1.508-0.116-2.172-0.348s-1.236-0.564-1.716-0.996c-0.48-0.432-0.853-0.964-1.116-1.596s-0.396-1.348-0.396-2.148
				c0-0.607,0.112-1.16,0.336-1.656c0.225-0.495,0.521-0.947,0.889-1.355s0.788-0.771,1.26-1.092s0.956-0.608,1.452-0.864
				c-0.225-0.288-0.44-0.572-0.648-0.852c-0.208-0.28-0.392-0.572-0.552-0.877c-0.16-0.304-0.288-0.623-0.384-0.96
				c-0.096-0.336-0.145-0.688-0.145-1.056c0-0.624,0.108-1.184,0.324-1.68s0.517-0.924,0.9-1.284s0.832-0.636,1.344-0.828
				s1.056-0.288,1.632-0.288c0.544,0,1.076,0.084,1.597,0.252c0.52,0.168,0.976,0.425,1.367,0.769
				c0.393,0.344,0.708,0.771,0.948,1.283c0.24,0.513,0.36,1.112,0.36,1.801c0,0.512-0.084,0.983-0.252,1.416
				c-0.168,0.432-0.393,0.828-0.672,1.188c-0.28,0.36-0.608,0.685-0.984,0.973c-0.376,0.287-0.772,0.544-1.188,0.768l2.664,3.216
				c0.097-0.271,0.192-0.584,0.288-0.936c0.097-0.353,0.176-0.808,0.24-1.368h2.4c-0.081,0.752-0.229,1.488-0.444,2.208
				s-0.516,1.384-0.9,1.992l3.288,3.983h-3.359L202.673,31.92z M197.849,25.92c-0.256,0.16-0.536,0.32-0.84,0.48
				s-0.588,0.359-0.852,0.6s-0.488,0.528-0.672,0.864c-0.185,0.336-0.276,0.76-0.276,1.271c0,0.929,0.26,1.641,0.78,2.137
				c0.52,0.496,1.18,0.743,1.979,0.743c0.496,0,0.92-0.067,1.272-0.203c0.352-0.136,0.651-0.301,0.899-0.492
				c0.248-0.192,0.456-0.4,0.624-0.624s0.316-0.424,0.444-0.601L197.849,25.92z M198.953,18.336c-0.513,0-0.944,0.172-1.296,0.517
				c-0.353,0.344-0.528,0.804-0.528,1.38c0,0.288,0.052,0.556,0.156,0.804c0.104,0.248,0.231,0.488,0.384,0.72
				c0.152,0.232,0.32,0.46,0.504,0.685c0.184,0.224,0.356,0.439,0.517,0.647c0.256-0.176,0.504-0.355,0.743-0.54
				c0.24-0.184,0.456-0.384,0.648-0.6s0.344-0.46,0.456-0.732c0.111-0.271,0.168-0.576,0.168-0.912c0-0.56-0.16-1.027-0.48-1.403
				C199.905,18.524,199.481,18.336,198.953,18.336z"/>
			<path style="fill:#316094;" d="M215.754,16.704h11.832v2.592h-8.832v4.488h7.752v2.448h-7.752v7.607h-3V16.704z"/>
			<path style="fill:#316094;" d="M229.793,16.704h3v9.984c0,0.575,0.028,1.16,0.084,1.752s0.216,1.124,0.48,1.596
				c0.264,0.472,0.663,0.86,1.2,1.164c0.535,0.304,1.291,0.456,2.268,0.456c0.976,0,1.731-0.152,2.268-0.456s0.937-0.692,1.2-1.164
				c0.265-0.472,0.424-1.004,0.48-1.596c0.056-0.592,0.084-1.177,0.084-1.752v-9.984h3v10.968c0,1.104-0.168,2.064-0.504,2.88
				c-0.336,0.816-0.812,1.5-1.429,2.053c-0.616,0.552-1.355,0.964-2.22,1.235c-0.864,0.272-1.824,0.408-2.88,0.408
				s-2.016-0.136-2.88-0.408c-0.864-0.271-1.604-0.684-2.22-1.235c-0.616-0.553-1.093-1.236-1.429-2.053
				c-0.336-0.815-0.504-1.775-0.504-2.88V16.704z"/>
			<path style="fill:#316094;" d="M247.192,16.704h3.168l7.824,12.624h0.048V16.704h2.855V33.84h-3.168l-7.8-12.6h-0.072v12.6
				h-2.855V16.704z"/>
			<path style="fill:#316094;" d="M264.641,16.704h7.104c1.312,0,2.448,0.225,3.408,0.672c0.96,0.448,1.744,1.061,2.353,1.836
				c0.607,0.776,1.06,1.685,1.355,2.725s0.444,2.151,0.444,3.336c0,1.184-0.148,2.296-0.444,3.336s-0.748,1.948-1.355,2.724
				c-0.608,0.776-1.393,1.389-2.353,1.836c-0.96,0.448-2.096,0.672-3.408,0.672h-7.104V16.704z M267.641,31.391h2.952
				c1.167,0,2.124-0.155,2.867-0.468c0.744-0.312,1.328-0.744,1.753-1.296c0.423-0.552,0.711-1.2,0.863-1.943
				c0.152-0.744,0.229-1.549,0.229-2.412c0-0.864-0.076-1.668-0.229-2.412s-0.44-1.393-0.863-1.944
				c-0.425-0.552-1.009-0.984-1.753-1.296c-0.743-0.312-1.7-0.468-2.867-0.468h-2.952V31.391z"/>
			<path style="fill:#316094;" d="M281.968,16.704h3V33.84h-3V16.704z"/>
			<path style="fill:#316094;" d="M288.52,16.704h3.168l7.824,12.624h0.048V16.704h2.855V33.84h-3.168l-7.8-12.6h-0.072v12.6h-2.855
				V16.704z"/>
			<path style="fill:#316094;" d="M320.92,33.84H319l-0.456-2.016c-0.801,0.912-1.601,1.544-2.4,1.896
				c-0.8,0.353-1.72,0.528-2.76,0.528c-1.28,0-2.429-0.236-3.444-0.708c-1.017-0.472-1.876-1.116-2.58-1.932
				c-0.704-0.816-1.244-1.768-1.62-2.856c-0.376-1.088-0.563-2.248-0.563-3.479c0-1.216,0.188-2.368,0.563-3.456
				s0.916-2.04,1.62-2.856c0.704-0.815,1.563-1.464,2.58-1.944c1.016-0.479,2.164-0.72,3.444-0.72c0.928,0,1.812,0.124,2.651,0.372
				c0.841,0.248,1.588,0.616,2.244,1.104s1.2,1.1,1.632,1.836c0.433,0.735,0.704,1.584,0.816,2.544H317.8
				c-0.08-0.561-0.252-1.052-0.517-1.477c-0.264-0.424-0.596-0.779-0.996-1.067c-0.399-0.288-0.848-0.504-1.344-0.648
				c-0.496-0.144-1.016-0.216-1.56-0.216c-0.912,0-1.7,0.184-2.364,0.552s-1.204,0.86-1.62,1.477s-0.724,1.315-0.924,2.1
				s-0.3,1.584-0.3,2.4c0,0.815,0.1,1.616,0.3,2.399c0.2,0.784,0.508,1.484,0.924,2.101s0.956,1.107,1.62,1.476
				s1.452,0.552,2.364,0.552c0.768,0.017,1.447-0.084,2.04-0.3c0.592-0.216,1.092-0.528,1.5-0.936
				c0.408-0.408,0.716-0.908,0.924-1.5s0.319-1.248,0.336-1.969h-4.56v-2.279h7.296V33.84z"/>
		</g>
	</g>
</g>
<g id="Guides">
</g>
</svg>
