<?xml version="1.0" encoding="iso-8859-1"?>
<!-- Generator: Adobe Illustrator 29.1.0, SVG Export Plug-In . SVG Version: 9.03 Build 55587)  -->
<svg version="1.1" xmlns="http://www.w3.org/2000/svg" xmlns:xlink="http://www.w3.org/1999/xlink" x="0px" y="0px"
	 viewBox="0 0 78.766 65.509" style="enable-background:new 0 0 78.766 65.509;" xml:space="preserve">
<g id="notagline">
	<g id="white_00000115506725593217003580000011769739285080440707_" style="display:none;">
		<path style="display:inline;fill:#FFFFFF;" d="M35.578,29.434c-0.731-0.72-1.76-1.08-3.087-1.08c-0.815,0-1.567,0.151-2.255,0.453
			c-0.689,0.302-1.284,0.729-1.786,1.28c-0.502,0.552-0.894,1.212-1.175,1.981c-0.281,0.769-0.422,1.621-0.422,2.555
			c0,0.92,0.112,1.765,0.337,2.534c0.225,0.769,0.562,1.432,1.012,1.986c0.449,0.555,1.01,0.987,1.681,1.296
			c0.671,0.309,1.452,0.464,2.345,0.464c0.435,0,0.868-0.044,1.296-0.132c0.428-0.088,0.834-0.204,1.217-0.348
			c0.383-0.144,0.731-0.311,1.043-0.501c0.313-0.19,0.571-0.386,0.775-0.59l-0.443-1.033c-0.155,0.12-0.35,0.239-0.585,0.358
			c-0.235,0.12-0.495,0.225-0.78,0.316c-0.285,0.091-0.581,0.165-0.89,0.221c-0.309,0.056-0.615,0.084-0.917,0.084
			c-0.457,0-0.896-0.082-1.317-0.248c-0.422-0.165-0.796-0.428-1.122-0.79c-0.327-0.362-0.592-0.827-0.796-1.396
			c-0.204-0.569-0.32-1.254-0.348-2.055v-0.063h7.292c0.056-0.26,0.091-0.56,0.105-0.901c0.014-0.341,0.017-0.739,0.011-1.196
			C36.706,31.22,36.309,30.154,35.578,29.434z M34.277,33.022c-0.004,0.155-0.012,0.302-0.026,0.443h-4.889
			c0.035-0.745,0.125-1.363,0.269-1.855c0.144-0.492,0.33-0.885,0.558-1.18c0.228-0.295,0.493-0.504,0.796-0.627
			c0.302-0.123,0.629-0.184,0.98-0.184c0.428,0,0.788,0.081,1.08,0.242c0.292,0.162,0.529,0.379,0.711,0.653s0.316,0.59,0.4,0.948
			c0.084,0.358,0.126,0.734,0.126,1.128C34.282,32.724,34.28,32.868,34.277,33.022z"/>
		<path style="display:inline;fill:#FFFFFF;" d="M65.274,39.218l-5.205-14.732h-2.392l-5.343,14.721l-0.674,0.146l-0.407-0.136
			c-0.19-0.049-0.386-0.205-0.59-0.469c-0.204-0.263-0.418-0.59-0.643-0.98c-0.225-0.39-0.457-0.813-0.695-1.27
			c-0.239-0.457-0.488-0.901-0.748-1.333c-0.26-0.432-0.525-0.827-0.796-1.185c-0.271-0.358-0.55-0.625-0.838-0.801
			c0.485-0.162,0.92-0.395,1.307-0.701c0.386-0.306,0.711-0.66,0.975-1.064c0.263-0.404,0.465-0.839,0.606-1.307
			c0.14-0.467,0.211-0.943,0.211-1.428c0-0.695-0.102-1.307-0.306-1.834c-0.204-0.527-0.532-0.966-0.985-1.317
			c-0.453-0.351-1.047-0.616-1.781-0.796c-0.734-0.179-1.632-0.269-2.692-0.269c-0.295,0-0.576,0.009-0.843,0.026
			c-0.267,0.018-0.532,0.035-0.796,0.053c-0.263,0.018-0.527,0.035-0.79,0.053c-0.263,0.018-0.539,0.026-0.827,0.026h-2.866v1.159
			l1.644,0.285v13.161l-1.77,0.274v1.159h6.228v-1.159l-2.055-0.263v-5.659c0.084,0.007,0.223,0.012,0.416,0.016
			c0.193,0.004,0.409,0.007,0.648,0.011c0.239,0.004,0.485,0.005,0.738,0.005s0.478,0,0.674,0c0.267,0.162,0.535,0.448,0.806,0.859
			c0.27,0.411,0.537,0.878,0.801,1.402c0.263,0.523,0.522,1.068,0.775,1.633c0.253,0.566,0.497,1.082,0.732,1.549
			c0.235,0.467,0.462,0.852,0.68,1.154c0.218,0.302,0.418,0.453,0.601,0.453h1.913h1.122h4.042v-1.159l-1.781-0.295l0.991-3.066
			h6.28l0.991,3.066l-1.718,0.295v1.159h5.711v-1.159L65.274,39.218z M44.552,32.348c-0.126,0-0.3,0.002-0.522,0.005
			s-0.451,0.007-0.69,0.011c-0.239,0.004-0.464,0.004-0.674,0s-0.365-0.012-0.464-0.026v-6.502c0.077-0.007,0.162-0.017,0.253-0.032
			c0.091-0.014,0.204-0.028,0.337-0.042c0.133-0.014,0.297-0.026,0.49-0.037c0.193-0.011,0.427-0.016,0.701-0.016
			c0.688,0,1.257,0.083,1.707,0.248c0.449,0.165,0.806,0.39,1.069,0.674c0.263,0.285,0.448,0.62,0.553,1.006
			c0.105,0.386,0.158,0.797,0.158,1.233c0,1.173-0.26,2.046-0.78,2.619C46.171,32.062,45.458,32.348,44.552,32.348z M55.801,34.803
			l2.255-6.976l0.453-1.707l0.443,1.707l2.245,6.976H55.801z"/>
		<path style="display:inline;fill:#FFFFFF;" d="M68.987,62.893c0,1.323-1.073,2.396-2.396,2.396H33.339
			c-0.093,0-0.185-0.007-0.275-0.017c-0.107,0.015-0.215,0.025-0.326,0.025c-17.922,0-32.503-14.581-32.503-32.503
			S14.815,0.292,32.737,0.292c5.175,0,10.326,1.247,14.894,3.607c1.176,0.607,1.637,2.052,1.029,3.228
			c-0.607,1.176-2.052,1.637-3.228,1.029c-3.947-2.038-8.219-3.072-12.695-3.072c-15.28,0-27.711,12.431-27.711,27.711
			c0,15.28,12.431,27.711,27.711,27.711c0.093,0,0.185,0.007,0.275,0.017c0.107-0.015,0.215-0.025,0.326-0.025h33.252
			C67.914,60.497,68.987,61.57,68.987,62.893z M33.032,47.211c-0.097-0.012-0.195-0.02-0.295-0.02
			c-7.939,0-14.397-6.459-14.397-14.397s6.459-14.397,14.397-14.397c1.565,0,3.103,0.249,4.572,0.74
			c1.255,0.42,2.612-0.257,3.032-1.512c0.42-1.255-0.257-2.612-1.512-3.032c-1.959-0.655-4.009-0.988-6.092-0.988
			c-10.581,0-19.189,8.608-19.189,19.189s8.608,19.189,19.189,19.189c0.126,0,0.248-0.013,0.369-0.031
			c0.097,0.012,0.195,0.02,0.295,0.02h25.846c1.323,0,2.396-1.073,2.396-2.396c0-1.323-1.073-2.396-2.396-2.396H33.401
			C33.275,47.18,33.153,47.193,33.032,47.211z M78.259,55.67l-7.4-4.272c-0.364-0.21-0.818,0.053-0.818,0.473v1.993H33.401
			c-0.119,0-0.235,0.012-0.35,0.028c-0.103-0.014-0.207-0.023-0.314-0.023c-11.621,0-21.075-9.454-21.075-21.075
			c0-7.559,4.085-14.582,10.662-18.327c1.15-0.655,1.551-2.118,0.896-3.268c-0.655-1.149-2.118-1.552-3.268-0.896
			C11.883,14.899,6.87,23.517,6.87,32.794c0,14.263,11.604,25.867,25.867,25.867c0.119,0,0.235-0.012,0.35-0.028
			c0.103,0.014,0.207,0.023,0.314,0.023H70.04v1.76c0,0.42,0.455,0.683,0.818,0.473l7.4-4.272
			C78.622,56.405,78.622,55.88,78.259,55.67z"/>
	</g>
	<g id="black_00000027570163798120817340000013215525216498286779_">
		<path d="M35.578,29.434c-0.731-0.72-1.76-1.08-3.087-1.08c-0.815,0-1.567,0.151-2.255,0.453c-0.689,0.302-1.284,0.729-1.786,1.28
			c-0.502,0.552-0.894,1.212-1.175,1.981c-0.281,0.769-0.422,1.621-0.422,2.555c0,0.92,0.112,1.765,0.337,2.534
			c0.225,0.769,0.562,1.432,1.012,1.986c0.449,0.555,1.01,0.987,1.681,1.296c0.671,0.309,1.452,0.464,2.345,0.464
			c0.435,0,0.868-0.044,1.296-0.132c0.428-0.088,0.834-0.204,1.217-0.348c0.383-0.144,0.731-0.311,1.043-0.501
			c0.313-0.19,0.571-0.386,0.775-0.59l-0.443-1.033c-0.155,0.12-0.35,0.239-0.585,0.358c-0.235,0.12-0.495,0.225-0.78,0.316
			c-0.285,0.091-0.581,0.165-0.89,0.221c-0.309,0.056-0.615,0.084-0.917,0.084c-0.457,0-0.896-0.082-1.317-0.248
			c-0.422-0.165-0.796-0.428-1.122-0.79c-0.327-0.362-0.592-0.827-0.796-1.396c-0.204-0.569-0.32-1.254-0.348-2.055v-0.063h7.292
			c0.056-0.26,0.091-0.56,0.105-0.901c0.014-0.341,0.017-0.739,0.011-1.196C36.706,31.22,36.309,30.154,35.578,29.434z
			 M34.277,33.022c-0.004,0.155-0.012,0.302-0.026,0.443h-4.889c0.035-0.745,0.125-1.363,0.269-1.855
			c0.144-0.492,0.33-0.885,0.558-1.18c0.228-0.295,0.493-0.504,0.796-0.627c0.302-0.123,0.629-0.184,0.98-0.184
			c0.428,0,0.788,0.081,1.08,0.242c0.292,0.162,0.529,0.379,0.711,0.653s0.316,0.59,0.4,0.948c0.084,0.358,0.126,0.734,0.126,1.128
			C34.282,32.724,34.28,32.868,34.277,33.022z"/>
		<path d="M65.274,39.218l-5.205-14.732h-2.392l-5.343,14.721l-0.674,0.146l-0.407-0.136c-0.19-0.049-0.386-0.205-0.59-0.469
			c-0.204-0.263-0.418-0.59-0.643-0.98c-0.225-0.39-0.457-0.813-0.695-1.27c-0.239-0.457-0.488-0.901-0.748-1.333
			c-0.26-0.432-0.525-0.827-0.796-1.185c-0.271-0.358-0.55-0.625-0.838-0.801c0.485-0.162,0.92-0.395,1.307-0.701
			c0.386-0.306,0.711-0.66,0.975-1.064c0.263-0.404,0.465-0.839,0.606-1.307c0.14-0.467,0.211-0.943,0.211-1.428
			c0-0.695-0.102-1.307-0.306-1.834c-0.204-0.527-0.532-0.966-0.985-1.317c-0.453-0.351-1.047-0.616-1.781-0.796
			c-0.734-0.179-1.632-0.269-2.692-0.269c-0.295,0-0.576,0.009-0.843,0.026c-0.267,0.018-0.532,0.035-0.796,0.053
			c-0.263,0.018-0.527,0.035-0.79,0.053c-0.263,0.018-0.539,0.026-0.827,0.026h-2.866v1.159l1.644,0.285v13.161l-1.77,0.274v1.159
			h6.228v-1.159l-2.055-0.263v-5.659c0.084,0.007,0.223,0.012,0.416,0.016c0.193,0.004,0.409,0.007,0.648,0.011
			c0.239,0.004,0.485,0.005,0.738,0.005s0.478,0,0.674,0c0.267,0.162,0.535,0.448,0.806,0.859c0.27,0.411,0.537,0.878,0.801,1.402
			c0.263,0.523,0.522,1.068,0.775,1.633c0.253,0.566,0.497,1.082,0.732,1.549c0.235,0.467,0.462,0.852,0.68,1.154
			c0.218,0.302,0.418,0.453,0.601,0.453h1.913h1.122h4.042v-1.159l-1.781-0.295l0.991-3.066h6.28l0.991,3.066l-1.718,0.295v1.159
			h5.711v-1.159L65.274,39.218z M44.552,32.348c-0.126,0-0.3,0.002-0.522,0.005s-0.451,0.007-0.69,0.011
			c-0.239,0.004-0.464,0.004-0.674,0s-0.365-0.012-0.464-0.026v-6.502c0.077-0.007,0.162-0.017,0.253-0.032
			c0.091-0.014,0.204-0.028,0.337-0.042c0.133-0.014,0.297-0.026,0.49-0.037c0.193-0.011,0.427-0.016,0.701-0.016
			c0.688,0,1.257,0.083,1.707,0.248c0.449,0.165,0.806,0.39,1.069,0.674c0.263,0.285,0.448,0.62,0.553,1.006
			c0.105,0.386,0.158,0.797,0.158,1.233c0,1.173-0.26,2.046-0.78,2.619C46.171,32.062,45.458,32.348,44.552,32.348z M55.801,34.803
			l2.255-6.976l0.453-1.707l0.443,1.707l2.245,6.976H55.801z"/>
		<path d="M68.987,62.893c0,1.323-1.073,2.396-2.396,2.396H33.339c-0.093,0-0.185-0.007-0.275-0.017
			c-0.107,0.015-0.215,0.025-0.326,0.025c-17.922,0-32.503-14.581-32.503-32.503S14.815,0.292,32.737,0.292
			c5.175,0,10.326,1.247,14.894,3.607c1.176,0.607,1.637,2.052,1.029,3.228c-0.607,1.176-2.052,1.637-3.228,1.029
			c-3.947-2.038-8.219-3.072-12.695-3.072c-15.28,0-27.711,12.431-27.711,27.711c0,15.28,12.431,27.711,27.711,27.711
			c0.093,0,0.185,0.007,0.275,0.017c0.107-0.015,0.215-0.025,0.326-0.025h33.252C67.914,60.497,68.987,61.57,68.987,62.893z
			 M33.032,47.211c-0.097-0.012-0.195-0.02-0.295-0.02c-7.939,0-14.397-6.459-14.397-14.397s6.459-14.397,14.397-14.397
			c1.565,0,3.103,0.249,4.572,0.74c1.255,0.42,2.612-0.257,3.032-1.512c0.42-1.255-0.257-2.612-1.512-3.032
			c-1.959-0.655-4.009-0.988-6.092-0.988c-10.581,0-19.189,8.608-19.189,19.189s8.608,19.189,19.189,19.189
			c0.126,0,0.248-0.013,0.369-0.031c0.097,0.012,0.195,0.02,0.295,0.02h25.846c1.323,0,2.396-1.073,2.396-2.396
			c0-1.323-1.073-2.396-2.396-2.396H33.401C33.275,47.18,33.153,47.193,33.032,47.211z M78.259,55.67l-7.4-4.272
			c-0.364-0.21-0.818,0.053-0.818,0.473v1.993H33.401c-0.119,0-0.235,0.012-0.35,0.028c-0.103-0.014-0.207-0.023-0.314-0.023
			c-11.621,0-21.075-9.454-21.075-21.075c0-7.559,4.085-14.582,10.662-18.327c1.15-0.655,1.551-2.118,0.896-3.268
			c-0.655-1.149-2.118-1.552-3.268-0.896C11.883,14.899,6.87,23.517,6.87,32.794c0,14.263,11.604,25.867,25.867,25.867
			c0.119,0,0.235-0.012,0.35-0.028c0.103,0.014,0.207,0.023,0.314,0.023H70.04v1.76c0,0.42,0.455,0.683,0.818,0.473l7.4-4.272
			C78.622,56.405,78.622,55.88,78.259,55.67z"/>
	</g>
	<g id="default_00000129918672857718221860000000099893795321575322_" style="display:none;">
		<path style="display:inline;fill:#1D3666;" d="M35.578,29.434c-0.731-0.72-1.76-1.08-3.087-1.08c-0.815,0-1.567,0.151-2.255,0.453
			c-0.689,0.302-1.284,0.729-1.786,1.28c-0.502,0.552-0.894,1.212-1.175,1.981c-0.281,0.769-0.422,1.621-0.422,2.555
			c0,0.92,0.112,1.765,0.337,2.534c0.225,0.769,0.562,1.432,1.012,1.986c0.449,0.555,1.01,0.987,1.681,1.296
			c0.671,0.309,1.452,0.464,2.345,0.464c0.435,0,0.868-0.044,1.296-0.132c0.428-0.088,0.834-0.204,1.217-0.348
			c0.383-0.144,0.731-0.311,1.043-0.501c0.313-0.19,0.571-0.386,0.775-0.59l-0.443-1.033c-0.155,0.12-0.35,0.239-0.585,0.358
			c-0.235,0.12-0.495,0.225-0.78,0.316c-0.285,0.091-0.581,0.165-0.89,0.221c-0.309,0.056-0.615,0.084-0.917,0.084
			c-0.457,0-0.896-0.082-1.317-0.248c-0.422-0.165-0.796-0.428-1.122-0.79c-0.327-0.362-0.592-0.827-0.796-1.396
			c-0.204-0.569-0.32-1.254-0.348-2.055v-0.063h7.292c0.056-0.26,0.091-0.56,0.105-0.901c0.014-0.341,0.017-0.739,0.011-1.196
			C36.706,31.22,36.309,30.154,35.578,29.434z M34.277,33.022c-0.004,0.155-0.012,0.302-0.026,0.443h-4.889
			c0.035-0.745,0.125-1.363,0.269-1.855c0.144-0.492,0.33-0.885,0.558-1.18c0.228-0.295,0.493-0.504,0.796-0.627
			c0.302-0.123,0.629-0.184,0.98-0.184c0.428,0,0.788,0.081,1.08,0.242c0.292,0.162,0.529,0.379,0.711,0.653s0.316,0.59,0.4,0.948
			c0.084,0.358,0.126,0.734,0.126,1.128C34.282,32.724,34.28,32.868,34.277,33.022z"/>
		<path style="display:inline;fill:#1D3666;" d="M65.274,39.218l-5.205-14.732h-2.392l-5.343,14.721l-0.674,0.146l-0.407-0.136
			c-0.19-0.049-0.386-0.205-0.59-0.469c-0.204-0.263-0.418-0.59-0.643-0.98c-0.225-0.39-0.457-0.813-0.695-1.27
			c-0.239-0.457-0.488-0.901-0.748-1.333c-0.26-0.432-0.525-0.827-0.796-1.185c-0.271-0.358-0.55-0.625-0.838-0.801
			c0.485-0.162,0.92-0.395,1.307-0.701c0.386-0.306,0.711-0.66,0.975-1.064c0.263-0.404,0.465-0.839,0.606-1.307
			c0.14-0.467,0.211-0.943,0.211-1.428c0-0.695-0.102-1.307-0.306-1.834c-0.204-0.527-0.532-0.966-0.985-1.317
			c-0.453-0.351-1.047-0.616-1.781-0.796c-0.734-0.179-1.632-0.269-2.692-0.269c-0.295,0-0.576,0.009-0.843,0.026
			c-0.267,0.018-0.532,0.035-0.796,0.053c-0.263,0.018-0.527,0.035-0.79,0.053c-0.263,0.018-0.539,0.026-0.827,0.026h-2.866v1.159
			l1.644,0.285v13.161l-1.77,0.274v1.159h6.228v-1.159l-2.055-0.263v-5.659c0.084,0.007,0.223,0.012,0.416,0.016
			c0.193,0.004,0.409,0.007,0.648,0.011c0.239,0.004,0.485,0.005,0.738,0.005s0.478,0,0.674,0c0.267,0.162,0.535,0.448,0.806,0.859
			c0.27,0.411,0.537,0.878,0.801,1.402c0.263,0.523,0.522,1.068,0.775,1.633c0.253,0.566,0.497,1.082,0.732,1.549
			c0.235,0.467,0.462,0.852,0.68,1.154c0.218,0.302,0.418,0.453,0.601,0.453h1.913h1.122h4.042v-1.159l-1.781-0.295l0.991-3.066
			h6.28l0.991,3.066l-1.718,0.295v1.159h5.711v-1.159L65.274,39.218z M44.552,32.348c-0.126,0-0.3,0.002-0.522,0.005
			s-0.451,0.007-0.69,0.011c-0.239,0.004-0.464,0.004-0.674,0s-0.365-0.012-0.464-0.026v-6.502c0.077-0.007,0.162-0.017,0.253-0.032
			c0.091-0.014,0.204-0.028,0.337-0.042c0.133-0.014,0.297-0.026,0.49-0.037c0.193-0.011,0.427-0.016,0.701-0.016
			c0.688,0,1.257,0.083,1.707,0.248c0.449,0.165,0.806,0.39,1.069,0.674c0.263,0.285,0.448,0.62,0.553,1.006
			c0.105,0.386,0.158,0.797,0.158,1.233c0,1.173-0.26,2.046-0.78,2.619C46.171,32.062,45.458,32.348,44.552,32.348z M55.801,34.803
			l2.255-6.976l0.453-1.707l0.443,1.707l2.245,6.976H55.801z"/>
		<linearGradient id="SVGID_1_" gradientUnits="userSpaceOnUse" x1="12.8169" y1="58.8084" x2="73.2626" y2="9.0415">
			<stop  offset="0" style="stop-color:#3768B2"/>
			<stop  offset="1" style="stop-color:#3D9845"/>
		</linearGradient>
		<path style="display:inline;fill:url(#SVGID_1_);" d="M68.987,62.893c0,1.323-1.073,2.396-2.396,2.396H33.339
			c-0.093,0-0.185-0.007-0.275-0.017c-0.107,0.015-0.215,0.025-0.326,0.025c-17.922,0-32.503-14.581-32.503-32.503
			S14.815,0.292,32.737,0.292c5.175,0,10.326,1.247,14.894,3.607c1.176,0.607,1.637,2.052,1.029,3.228
			c-0.607,1.176-2.052,1.637-3.228,1.029c-3.947-2.038-8.219-3.072-12.695-3.072c-15.28,0-27.711,12.431-27.711,27.711
			c0,15.28,12.431,27.711,27.711,27.711c0.093,0,0.185,0.007,0.275,0.017c0.107-0.015,0.215-0.025,0.326-0.025h33.252
			C67.914,60.497,68.987,61.57,68.987,62.893z M33.032,47.211c-0.097-0.012-0.195-0.02-0.295-0.02
			c-7.939,0-14.397-6.459-14.397-14.397s6.459-14.397,14.397-14.397c1.565,0,3.103,0.249,4.572,0.74
			c1.255,0.42,2.612-0.257,3.032-1.512c0.42-1.255-0.257-2.612-1.512-3.032c-1.959-0.655-4.009-0.988-6.092-0.988
			c-10.581,0-19.189,8.608-19.189,19.189s8.608,19.189,19.189,19.189c0.126,0,0.248-0.013,0.369-0.031
			c0.097,0.012,0.195,0.02,0.295,0.02h25.846c1.323,0,2.396-1.073,2.396-2.396c0-1.323-1.073-2.396-2.396-2.396H33.401
			C33.275,47.18,33.153,47.193,33.032,47.211z M78.259,55.67l-7.4-4.272c-0.364-0.21-0.818,0.053-0.818,0.473v1.993H33.401
			c-0.119,0-0.235,0.012-0.35,0.028c-0.103-0.014-0.207-0.023-0.314-0.023c-11.621,0-21.075-9.454-21.075-21.075
			c0-7.559,4.085-14.582,10.662-18.327c1.15-0.655,1.551-2.118,0.896-3.268c-0.655-1.149-2.118-1.552-3.268-0.896
			C11.883,14.899,6.87,23.517,6.87,32.794c0,14.263,11.604,25.867,25.867,25.867c0.119,0,0.235-0.012,0.35-0.028
			c0.103,0.014,0.207,0.023,0.314,0.023H70.04v1.76c0,0.42,0.455,0.683,0.818,0.473l7.4-4.272
			C78.622,56.405,78.622,55.88,78.259,55.67z"/>
	</g>
</g>
<g id="Guides" style="display:none;">
</g>
</svg>
